<svg version="1.1" x="0px" y="0px"  width="100px" height="100px" viewBox="0 0 500 200" xmlns="http://www.w3.org/2000/svg" xmlns:xlink="http://www.w3.org/1999/xlink" xmlns:a="http://ns.adobe.com/AdobeSVGViewerExtensions/3.0/" xml:space="preserve"><g transform="translate(20.081608336021 138.61862785569)  scale(0.65954793228115 0.65954793228115)"><text dominant-baseline="auto" alignment-baseline="auto" font-family="Ethnocentric Rg" font-size="55px" fill="#17191a" letter-spacing="0" xml:space="preserve">KDM Consulting</text></g>
<g transform="translate(53.040806528094 20.577285766602) scale(2.4198428335587 2.419842342488) rotate(0 57.855003356934 41.293067932129)"><path d="M55.126,70.65c-1.795,0.782-3.603,1.506-5.407,2.145c-7.832,2.855-15.612,4.525-22.297,4.525
	c-12.683,0-17.984-6.009-14.984-14.73c-7.156,11.532-2.229,19.996,13.335,19.996c11.632,0,26.458-4.733,39.528-11.936H55.126z" fill="#e05926"></path><path d="M98.675,7.958c0.018,0.052,0.041,0.101,0.057,0.153C98.649,8.05,98.552,8,98.468,7.939
	c-1.572-0.16-3.239-0.249-5.02-0.249c-19.744,0-46.34,10.123-66.385,24.286h10.882c3.651-2.18,7.435-4.211,11.287-6.054
	c3.946-1.933,7.986-3.64,12.009-5.063c10.533-3.842,20.998-6.088,29.99-6.088c17.059,0,24.188,8.082,20.153,19.813
	C120.155,20.45,115.426,9.747,98.675,7.958z" fill="#0f8ec3"></path><path d="M4.561,76.67C2.442,72.092,3.45,65.984,7.756,59.042H1.882C-1.361,66.524-0.378,72.725,4.561,76.67z" fill="#26a9e0"></path><path d="M81.8,4.734c7.621-0.487,13.209,0.719,16.668,3.205c0.068,0.007,0.14,0.012,0.207,0.02
	C96.942,2.464,90.337-0.606,79.298,0.1C58.634,1.421,29.993,15.459,13.659,31.976h5.22C36.729,17.473,62.599,5.962,81.8,4.734z" fill="#e05926"></path></g>
<g transform="translate(74.088723194761 168.423909306)  scale(0.58095238095238 0.58095238095238)"><text dominant-baseline="auto" alignment-baseline="auto" font-family="ADAM.CG PRO" font-size="22px" fill="#e05926" letter-spacing="0" xml:space="preserve">Accompagnement et Conseil en infrastructure IT</text></g>
</svg>